<svg width="20" height="20" viewBox="0 0 20 20" fill="none" xmlns="http://www.w3.org/2000/svg">
<path d="M3.2962 11.831L3.57013 10.2239C3.89389 8.32438 4.05577 7.37463 4.69683 6.81232C5.33788 6.25 6.25875 6.25 8.10048 6.25H11.8995C13.7412 6.25 14.6621 6.25 15.3031 6.81232C15.9442 7.37463 16.1061 8.32438 16.4298 10.2239L16.7037 11.831C17.1517 14.4595 17.3758 15.7737 16.686 16.6369C15.9962 17.5 14.7219 17.5 12.1734 17.5H7.82655C5.27801 17.5 4.00375 17.5 3.31397 16.6369C2.62419 15.7737 2.84819 14.4595 3.2962 11.831Z" stroke="#2D2D2D"/>
<path d="M6.62497 7.75L6.78623 5.49237C6.90666 3.80632 8.30962 2.5 9.99997 2.5C11.6903 2.5 13.0933 3.80632 13.2137 5.49238L13.375 7.75" stroke="#2D2D2D" stroke-linecap="round"/>
</svg>
