<svg width="16" height="16" viewBox="0 0 16 16" fill="none" xmlns="http://www.w3.org/2000/svg">
<circle cx="8" cy="8" r="7" fill="#FE4C58"/>
<path d="M8.14624 10.3325C8.54873 10.3328 8.87476 10.6595 8.87476 11.062V11.0679C8.87467 11.4703 8.54867 11.7961 8.14624 11.7964C7.74359 11.7964 7.41684 11.4705 7.41675 11.0679V11.062C7.41675 10.6593 7.74353 10.3325 8.14624 10.3325ZM8.14624 4.49951C8.54873 4.49977 8.87476 4.82646 8.87476 5.229V8.729C8.87458 9.1314 8.54862 9.45726 8.14624 9.45752C7.74364 9.45752 7.41692 9.13156 7.41675 8.729V5.229C7.41675 4.8263 7.74353 4.49951 8.14624 4.49951Z" fill="white"/>
</svg>
