<svg width="24" height="24" viewBox="0 0 24 24" fill="none" xmlns="http://www.w3.org/2000/svg">
<path fill-rule="evenodd" clip-rule="evenodd" d="M3.70287 4.68977C4.7932 3.60783 6.272 3 7.81395 3C8.70245 3 9.49989 3.1259 10.2763 3.46144C10.8748 3.72012 11.4348 4.09218 12 4.58746C12.5652 4.09218 13.1252 3.72012 13.7237 3.46144C14.5001 3.1259 15.2975 3 16.186 3C17.728 3 19.2068 3.60783 20.2971 4.68977C21.3875 5.77171 22 7.23914 22 8.76923C22 11.1959 20.3864 12.9923 19.0024 14.3382L12.4933 20.7972C12.2209 21.0676 11.7791 21.0676 11.5067 20.7972L4.9992 14.3398C3.6009 12.998 2 11.2035 2 8.76923C2 7.23914 2.61254 5.77171 3.70287 4.68977Z" fill="#FE4C58"/>
</svg>
