<svg width="16" height="16" viewBox="0 0 16 16" fill="none" xmlns="http://www.w3.org/2000/svg">
<path fill-rule="evenodd" clip-rule="evenodd" d="M4.79448 11.2047C4.62319 11.0334 4.62319 10.7557 4.79448 10.5844L10.5839 4.79497C10.7552 4.62368 11.0329 4.62368 11.2042 4.79497C11.3755 4.96626 11.3755 5.24398 11.2042 5.41527L5.41478 11.2047C5.24349 11.376 4.96577 11.376 4.79448 11.2047Z" fill="#333333"/>
<path fill-rule="evenodd" clip-rule="evenodd" d="M4.79448 4.79497C4.96577 4.62368 5.24349 4.62368 5.41478 4.79497L11.2042 10.5844C11.3755 10.7557 11.3755 11.0334 11.2042 11.2047C11.0329 11.376 10.7552 11.376 10.5839 11.2047L4.79448 5.41527C4.62319 5.24398 4.62319 4.96626 4.79448 4.79497Z" fill="#333333"/>
</svg>
