<svg width="20" height="20" viewBox="0 0 20 20" fill="none" xmlns="http://www.w3.org/2000/svg">
<path fill-rule="evenodd" clip-rule="evenodd" d="M4.61538 4.42302C4.08434 4.42302 3.65385 4.85352 3.65385 5.38456V16.1538C3.65385 16.6848 4.08434 17.1153 4.61538 17.1153H15.3846C15.9157 17.1153 16.3462 16.6848 16.3462 16.1538V5.38456C16.3462 4.85352 15.9157 4.42302 15.3846 4.42302H4.61538ZM2.5 5.38456C2.5 4.21626 3.44709 3.26917 4.61538 3.26917H15.3846C16.5529 3.26917 17.5 4.21626 17.5 5.38456V16.1538C17.5 17.3221 16.5529 18.2692 15.3846 18.2692H4.61538C3.44709 18.2692 2.5 17.3221 2.5 16.1538V5.38456Z" fill="#1A1A1A"/>
<path fill-rule="evenodd" clip-rule="evenodd" d="M13.0769 1.73071C13.3955 1.73071 13.6538 1.98901 13.6538 2.30764V5.38456C13.6538 5.70319 13.3955 5.96148 13.0769 5.96148C12.7583 5.96148 12.5 5.70319 12.5 5.38456V2.30764C12.5 1.98901 12.7583 1.73071 13.0769 1.73071Z" fill="#1A1A1A"/>
<path fill-rule="evenodd" clip-rule="evenodd" d="M6.92308 1.73071C7.2417 1.73071 7.5 1.98901 7.5 2.30764V5.38456C7.5 5.70319 7.2417 5.96148 6.92308 5.96148C6.60445 5.96148 6.34615 5.70319 6.34615 5.38456V2.30764C6.34615 1.98901 6.60445 1.73071 6.92308 1.73071Z" fill="#1A1A1A"/>
<path fill-rule="evenodd" clip-rule="evenodd" d="M2.5 8.46148C2.5 8.14286 2.7583 7.88456 3.07692 7.88456H16.9231C17.2417 7.88456 17.5 8.14286 17.5 8.46148C17.5 8.78011 17.2417 9.03841 16.9231 9.03841H3.07692C2.7583 9.03841 2.5 8.78011 2.5 8.46148Z" fill="#1A1A1A"/>
</svg>
