<svg width="24" height="24" viewBox="0 0 24 24" fill="none" xmlns="http://www.w3.org/2000/svg">
<path d="M11.8965 17.25C11.8026 17.4817 11.75 17.7346 11.75 18C11.75 18.2654 11.8026 18.5183 11.8965 18.75H2.75C2.33579 18.75 2 18.4142 2 18C2 17.5858 2.33579 17.25 2.75 17.25H11.8965Z" fill="#2D2D2D"/>
<path d="M20.75 17.25C21.1642 17.25 21.5 17.5858 21.5 18C21.5 18.4142 21.1642 18.75 20.75 18.75H15.6035C15.6974 18.5183 15.75 18.2654 15.75 18C15.75 17.7346 15.6974 17.4817 15.6035 17.25H20.75Z" fill="#2D2D2D"/>
<path d="M4.89648 11.25C4.80263 11.4817 4.75 11.7346 4.75 12C4.75 12.2654 4.80263 12.5183 4.89648 12.75H2.75C2.33579 12.75 2 12.4142 2 12C2 11.5858 2.33579 11.25 2.75 11.25H4.89648Z" fill="#2D2D2D"/>
<path d="M20.75 11.25C21.1642 11.25 21.5 11.5858 21.5 12C21.5 12.4142 21.1642 12.75 20.75 12.75H8.60352C8.69737 12.5183 8.75 12.2654 8.75 12C8.75 11.7346 8.69737 11.4817 8.60352 11.25H20.75Z" fill="#2D2D2D"/>
<path d="M14.8965 5.25C14.8026 5.48171 14.75 5.73463 14.75 6C14.75 6.26537 14.8026 6.51829 14.8965 6.75H2.75C2.33579 6.75 2 6.41421 2 6C2 5.58579 2.33579 5.25 2.75 5.25H14.8965Z" fill="#2D2D2D"/>
<path d="M20.75 5.25C21.1642 5.25 21.5 5.58579 21.5 6C21.5 6.41421 21.1642 6.75 20.75 6.75H18.6035C18.6974 6.51829 18.75 6.26537 18.75 6C18.75 5.73463 18.6974 5.48171 18.6035 5.25H20.75Z" fill="#2D2D2D"/>
<path d="M17.75 6C17.75 5.44772 17.3023 5 16.75 5C16.1977 5 15.75 5.44772 15.75 6C15.75 6.55228 16.1977 7 16.75 7V8C15.6454 8 14.75 7.10457 14.75 6C14.75 4.89543 15.6454 4 16.75 4C17.8546 4 18.75 4.89543 18.75 6C18.75 7.10457 17.8546 8 16.75 8V7C17.3023 7 17.75 6.55228 17.75 6Z" fill="#2D2D2D"/>
<path d="M7.75 12C7.75 11.4477 7.30228 11 6.75 11C6.19772 11 5.75 11.4477 5.75 12C5.75 12.5523 6.19772 13 6.75 13V14C5.64543 14 4.75 13.1046 4.75 12C4.75 10.8954 5.64543 10 6.75 10C7.85457 10 8.75 10.8954 8.75 12C8.75 13.1046 7.85457 14 6.75 14V13C7.30228 13 7.75 12.5523 7.75 12Z" fill="#2D2D2D"/>
<path d="M14.75 18C14.75 17.4477 14.3023 17 13.75 17C13.1977 17 12.75 17.4477 12.75 18C12.75 18.5523 13.1977 19 13.75 19V20C12.6454 20 11.75 19.1046 11.75 18C11.75 16.8954 12.6454 16 13.75 16C14.8546 16 15.75 16.8954 15.75 18C15.75 19.1046 14.8546 20 13.75 20V19C14.3023 19 14.75 18.5523 14.75 18Z" fill="#2D2D2D"/>
</svg>
