<svg width="24" height="24" viewBox="0 0 24 24" fill="none" xmlns="http://www.w3.org/2000/svg">
<circle cx="12" cy="12" r="10" fill="white"/>
<path fill-rule="evenodd" clip-rule="evenodd" d="M14.0244 8.26286C14.3349 8.00937 14.7832 8.0094 15.0937 8.26286L15.1582 8.32047L15.2158 8.38395C15.4693 8.69446 15.4693 9.14375 15.2158 9.45426L15.1582 9.51872L12.8544 11.8224L15.1582 14.1261L15.2158 14.1906C15.4693 14.5011 15.4692 14.9494 15.2158 15.2599L15.1582 15.3244C14.8481 15.6344 14.3569 15.6535 14.0244 15.382L13.9599 15.3244L11.6562 13.0207L9.35249 15.3244C9.04246 15.6344 8.55127 15.6533 8.2187 15.382L8.15425 15.3244C7.82358 14.9937 7.82358 14.4568 8.15425 14.1261L10.458 11.8224L8.15425 9.51872C7.82361 9.18808 7.82366 8.65115 8.15425 8.32047L8.2187 8.26286C8.52921 8.0094 8.97754 8.00937 9.28804 8.26286L9.35249 8.32047L11.6562 10.6242L13.9599 8.32047L14.0244 8.26286Z" fill="#808080"/>
</svg>
