<svg width="24" height="24" viewBox="0 0 24 24" fill="none" xmlns="http://www.w3.org/2000/svg">
<path d="M13.9931 14.9306C14.5397 16.2956 15.3281 16.5 15.75 16.5C16.1719 16.5 16.9603 16.2956 17.5069 14.9306C17.8247 14.1356 18 13.095 18 12C18 10.905 17.8247 9.86437 17.5069 9.06938C16.9603 7.70437 16.1719 7.5 15.75 7.5C15.3281 7.5 14.5397 7.70437 13.9931 9.06938C13.6753 9.86437 13.5 10.905 13.5 12C13.5 13.095 13.6753 14.1356 13.9931 14.9306ZM15.75 9.01875C15.9956 9.21187 16.5 10.2375 16.5 12C16.5 13.7625 15.9956 14.7881 15.75 14.9813C15.5044 14.7881 15 13.7625 15 12C15 10.2375 15.5044 9.21187 15.75 9.01875ZM21.75 20.25H18.4134C19.98 18.5372 21 15.5128 21 12C21 6.5325 18.5297 2.25 15.375 2.25H8.625C5.47031 2.25 3 6.5325 3 12C3 17.4675 5.47031 21.75 8.625 21.75H21.75C21.9489 21.75 22.1397 21.671 22.2803 21.5303C22.421 21.3897 22.5 21.1989 22.5 21C22.5 20.8011 22.421 20.6103 22.2803 20.4697C22.1397 20.329 21.9489 20.25 21.75 20.25ZM18.1631 5.99344C19.0247 7.58531 19.5 9.71906 19.5 12C19.5 14.2809 19.0247 16.4147 18.1631 18.0066C17.3794 19.4531 16.3894 20.25 15.375 20.25C14.3606 20.25 13.3706 19.4531 12.5869 18.0066C11.7253 16.4147 11.25 14.2809 11.25 12C11.25 9.71906 11.7253 7.58531 12.5869 5.99344C13.3706 4.54688 14.3606 3.75 15.375 3.75C16.3894 3.75 17.3794 4.54688 18.1631 5.99344ZM4.5 12C4.5 11.7656 4.50656 11.5312 4.51594 11.3025L7.5 9.17156L9.79031 10.8075C9.76406 11.1975 9.75 11.5959 9.75 12C9.74763 13.0536 9.84399 14.105 10.0378 15.1406L7.93594 13.6406C7.80874 13.5498 7.65632 13.5009 7.5 13.5009C7.34368 13.5009 7.19126 13.5498 7.06406 13.6406L4.83844 15.2344C4.60947 14.1716 4.496 13.0872 4.5 12ZM5.83687 5.99344C6.62062 4.54688 7.61063 3.75 8.625 3.75H12.3366C11.2209 4.96875 10.3828 6.855 9.99281 9.10875L7.93594 7.63969C7.80874 7.54883 7.65632 7.49998 7.5 7.49998C7.34368 7.49998 7.19126 7.54883 7.06406 7.63969L4.73344 9.30469C4.95469 8.0625 5.32781 6.9375 5.83687 5.99344ZM5.83687 18.0066C5.62113 17.6044 5.43501 17.1871 5.28 16.7578L7.5 15.1716L10.6819 17.4441C11.1131 18.5691 11.6756 19.5272 12.3366 20.25H8.625C7.61063 20.25 6.62062 19.4531 5.83687 18.0066Z" fill="#2D2D2D"/>
</svg>
