<svg width="32" height="32" viewBox="0 0 32 32" fill="none" xmlns="http://www.w3.org/2000/svg">
<path d="M25.3333 25.482C25.3333 22.2645 23.0702 19.5239 19.9945 19.0169L19.7175 18.9712C17.2547 18.5652 14.7451 18.5652 12.2823 18.9712L12.0053 19.0169C8.92969 19.5239 6.66659 22.2645 6.66659 25.482C6.66659 26.8726 7.7579 28 9.10409 28H22.8957C24.2419 28 25.3333 26.8726 25.3333 25.482Z" stroke="#2D2D2D" stroke-width="1.5"/>
<path d="M10.5554 9.25C10.5554 12.1495 12.993 14.5 15.9999 14.5C19.0068 14.5 21.4443 12.1495 21.4443 9.25C21.4443 6.35051 19.0068 4 15.9999 4C12.993 4 10.5554 6.35051 10.5554 9.25Z" stroke="#2D2D2D" stroke-width="1.5"/>
</svg>
