<svg width="24" height="24" viewBox="0 0 24 24" fill="none" xmlns="http://www.w3.org/2000/svg">
<path fill-rule="evenodd" clip-rule="evenodd" d="M7.1927 16.8073C6.93577 16.5504 6.93577 16.1338 7.1927 15.8769L15.8769 7.1927C16.1338 6.93577 16.5504 6.93577 16.8073 7.1927C17.0642 7.44964 17.0642 7.86621 16.8073 8.12315L8.12315 16.8073C7.86621 17.0642 7.44964 17.0642 7.1927 16.8073Z" fill="#1A1A1A"/>
<path fill-rule="evenodd" clip-rule="evenodd" d="M7.1927 7.1927C7.44964 6.93577 7.86621 6.93577 8.12315 7.1927L16.8073 15.8769C17.0642 16.1338 17.0642 16.5504 16.8073 16.8073C16.5504 17.0642 16.1338 17.0642 15.8769 16.8073L7.1927 8.12315C6.93577 7.86621 6.93577 7.44964 7.1927 7.1927Z" fill="#1A1A1A"/>
</svg>
