<svg width="40" height="40" viewBox="0 0 40 40" fill="none" xmlns="http://www.w3.org/2000/svg">
<circle cx="20" cy="20" r="17.5" fill="#12B76A"/>
<path fill-rule="evenodd" clip-rule="evenodd" d="M26.1424 14.0168C26.7148 13.5509 27.5595 13.5844 28.0936 14.1184L28.1932 14.2287C28.6285 14.7632 28.6288 15.535 28.1932 16.0695L28.0936 16.1799L18.1248 26.1496C17.6113 26.6626 16.8246 26.7014 16.2606 26.3049C16.2414 26.2938 16.2175 26.2764 16.1903 26.2561L16.1893 26.2551C16.1814 26.2492 16.1712 26.2442 16.1629 26.2375L16.1434 26.2219L16.1268 26.2063L16.1121 26.1916L16.0945 26.1809L16.0526 26.1389L11.2498 21.3352C10.6809 20.7657 10.6807 19.843 11.2498 19.2736L11.3611 19.174C11.9338 18.7071 12.7784 18.7399 13.3123 19.2736L17.0936 23.0549L26.0311 14.1184L26.1424 14.0168ZM16.2606 26.3049L16.2459 26.2961C16.2396 26.2921 16.2336 26.2864 16.2264 26.2815C16.2375 26.2897 16.2493 26.297 16.2606 26.3049Z" fill="white"/>
</svg>
