<svg width="24" height="24" viewBox="0 0 24 24" fill="none" xmlns="http://www.w3.org/2000/svg">
<path d="M3.95543 14.1972L4.28414 12.2686C4.67265 9.98925 4.86691 8.84956 5.63618 8.17478C6.40545 7.5 7.51049 7.5 9.72056 7.5H14.2793C16.4894 7.5 17.5945 7.5 18.3637 8.17478C19.133 8.84956 19.3272 9.98925 19.7158 12.2686L20.0445 14.1972C20.5821 17.3514 20.8509 18.9284 20.0232 19.9642C19.1954 21 17.6663 21 14.6081 21H9.39184C6.3336 21 4.80448 21 3.97675 19.9642C3.14901 18.9284 3.41782 17.3514 3.95543 14.1972Z" stroke="white" stroke-width="1.5"/>
<path d="M7.94995 9.3L8.14346 6.59085C8.28798 4.56759 9.97153 3 12 3C14.0284 3 15.7119 4.56759 15.8564 6.59085L16.05 9.3" stroke="white" stroke-width="1.5" stroke-linecap="round"/>
</svg>
