<svg width="24" height="24" viewBox="0 0 24 24" fill="none" xmlns="http://www.w3.org/2000/svg">
<path d="M2.56164 14.5663L2.92688 12.4235C3.35856 9.89083 3.5744 8.62451 4.42914 7.87475C5.28389 7.125 6.51171 7.125 8.96734 7.125H14.0327C16.4883 7.125 17.7161 7.125 18.5709 7.87475C19.4256 8.62451 19.6414 9.89083 20.0731 12.4235L20.4384 14.5663C21.0357 18.071 21.3344 19.8233 20.4147 20.9741C19.495 22.125 17.7959 22.125 14.3979 22.125H8.6021C5.20406 22.125 3.50504 22.125 2.58533 20.9741C1.66562 19.8233 1.9643 18.071 2.56164 14.5663Z" stroke="#2D2D2D" stroke-width="1.5"/>
<path d="M7 10L7.21501 6.98983C7.37559 4.74176 9.2462 3 11.5 3C13.7538 3 15.6244 4.74176 15.785 6.98983L16 10" stroke="#2D2D2D" stroke-width="1.5" stroke-linecap="round"/>
</svg>
