<svg width="24" height="24" viewBox="0 0 24 24" fill="none" xmlns="http://www.w3.org/2000/svg">
<path fill-rule="evenodd" clip-rule="evenodd" d="M16.7885 2.64535C15.6414 2.64535 14.7115 3.58243 14.7115 4.73837C14.7115 5.89432 15.6414 6.8314 16.7885 6.8314C17.9355 6.8314 18.8654 5.89432 18.8654 4.73837C18.8654 3.58243 17.9355 2.64535 16.7885 2.64535ZM13.3269 4.73837C13.3269 2.8118 14.8767 1.25 16.7885 1.25C18.7002 1.25 20.25 2.8118 20.25 4.73837C20.25 6.66495 18.7002 8.22674 16.7885 8.22674C14.8767 8.22674 13.3269 6.66495 13.3269 4.73837Z" fill="#333333"/>
<path fill-rule="evenodd" clip-rule="evenodd" d="M5.71154 9.15698C4.56449 9.15698 3.63462 10.0941 3.63462 11.25C3.63462 12.4059 4.56449 13.343 5.71154 13.343C6.85859 13.343 7.78846 12.4059 7.78846 11.25C7.78846 10.0941 6.85859 9.15698 5.71154 9.15698ZM2.25 11.25C2.25 9.32343 3.79978 7.76163 5.71154 7.76163C7.62329 7.76163 9.17308 9.32343 9.17308 11.25C9.17308 13.1766 7.62329 14.7384 5.71154 14.7384C3.79978 14.7384 2.25 13.1766 2.25 11.25Z" fill="#333333"/>
<path fill-rule="evenodd" clip-rule="evenodd" d="M16.7885 15.6686C15.6414 15.6686 14.7115 16.6057 14.7115 17.7616C14.7115 18.9176 15.6414 19.8547 16.7885 19.8547C17.9355 19.8547 18.8654 18.9176 18.8654 17.7616C18.8654 16.6057 17.9355 15.6686 16.7885 15.6686ZM13.3269 17.7616C13.3269 15.8351 14.8767 14.2733 16.7885 14.2733C18.7002 14.2733 20.25 15.8351 20.25 17.7616C20.25 19.6882 18.7002 21.25 16.7885 21.25C14.8767 21.25 13.3269 19.6882 13.3269 17.7616Z" fill="#333333"/>
<path fill-rule="evenodd" clip-rule="evenodd" d="M7.50415 12.3034C7.69665 11.9705 8.12051 11.8579 8.45087 12.0519L14.7555 15.7542C15.0858 15.9482 15.1976 16.3753 15.0051 16.7082C14.8126 17.0412 14.3887 17.1538 14.0584 16.9598L7.75375 13.2574C7.42339 13.0635 7.31164 12.6363 7.50415 12.3034Z" fill="#333333"/>
<path fill-rule="evenodd" clip-rule="evenodd" d="M14.9956 5.79138C15.1883 6.12417 15.0769 6.55139 14.7466 6.7456L8.45125 10.4479C8.12102 10.6421 7.69709 10.5298 7.50437 10.197C7.31166 9.86421 7.42313 9.43699 7.75337 9.24278L14.0487 5.54045C14.379 5.34624 14.8029 5.45858 14.9956 5.79138Z" fill="#333333"/>
</svg>
