<svg width="24" height="24" viewBox="0 0 24 24" fill="none" xmlns="http://www.w3.org/2000/svg">
<path fill-rule="evenodd" clip-rule="evenodd" d="M3.70287 4.68977C4.7932 3.60783 6.272 3 7.81395 3C8.70245 3 9.49989 3.1259 10.2763 3.46144C10.8748 3.72012 11.4348 4.09218 12 4.58746C12.5652 4.09218 13.1252 3.72012 13.7237 3.46144C14.5001 3.1259 15.2975 3 16.186 3C17.728 3 19.2068 3.60783 20.2971 4.68977C21.3875 5.77171 22 7.23914 22 8.76923C22 11.1959 20.3864 12.9923 19.0024 14.3382L12.4933 20.7972C12.2209 21.0676 11.7791 21.0676 11.5067 20.7972L4.9992 14.3398C3.6009 12.998 2 11.2035 2 8.76923C2 7.23914 2.61254 5.77171 3.70287 4.68977ZM7.81395 4.38462C6.64207 4.38462 5.51818 4.84656 4.68953 5.66884C3.86088 6.49111 3.39535 7.60636 3.39535 8.76923C3.39535 10.5786 4.58188 12.0137 5.97327 13.3484L5.98177 13.3565L12 19.3286L18.0233 13.3516C19.4109 12.0025 20.6047 10.5687 20.6047 8.76923C20.6047 7.60636 20.1391 6.49111 19.3105 5.66884C18.4818 4.84656 17.3579 4.38462 16.186 4.38462C15.4373 4.38462 14.8394 4.48949 14.2809 4.73087C13.7179 4.97421 13.1512 5.37515 12.4933 6.028C12.2209 6.29836 11.7791 6.29836 11.5067 6.028C10.8488 5.37515 10.2821 4.97421 9.71909 4.73087C9.16057 4.48949 8.56266 4.38462 7.81395 4.38462Z" fill="#2D2D2D"/>
</svg>
