<svg width="24" height="24" viewBox="0 0 24 24" fill="none" xmlns="http://www.w3.org/2000/svg">
<path d="M3.66206 11.718C2.80437 12.6759 2.78592 14.1211 3.57309 15.1377C5.13513 17.1552 6.84481 18.8649 8.86226 20.4269C9.87891 21.2141 11.3241 21.1956 12.282 20.3379C14.8828 18.0093 17.2645 15.5757 19.5631 12.9013C19.7903 12.6369 19.9325 12.3128 19.9644 11.9657C20.1054 10.4304 20.3952 6.0072 19.194 4.80598C17.9928 3.60477 13.5696 3.89457 12.0343 4.03565C11.6872 4.06755 11.3631 4.2097 11.0987 4.43694C8.42432 6.73547 5.99072 9.11721 3.66206 11.718Z" stroke="white" stroke-width="1.5"/>
<path d="M7.95 14.25L9.75 16.05" stroke="white" stroke-width="1.5" stroke-linecap="round" stroke-linejoin="round"/>
<path d="M17.4 6.6L21 3" stroke="white" stroke-width="1.5" stroke-linecap="round"/>
</svg>
