<svg width="32" height="32" viewBox="0 0 32 32" fill="none" xmlns="http://www.w3.org/2000/svg">
<path d="M5.27382 18.9296L5.71211 16.3582C6.23012 13.319 6.48913 11.7994 7.51482 10.8997C8.54052 10 10.0139 10 12.9607 10H19.039C21.9858 10 23.4592 10 24.4849 10.8997C25.5106 11.7994 25.7696 13.319 26.2876 16.3582L26.7259 18.9296C27.4427 23.1352 27.8011 25.2379 26.6975 26.619C25.5938 28 23.555 28 19.4773 28H12.5224C8.44472 28 6.4059 28 5.30225 26.619C4.1986 25.2379 4.55701 23.1352 5.27382 18.9296Z" stroke="#2D2D2D" stroke-width="1.5"/>
<path d="M10.5999 12.4L10.8579 8.7878C11.0506 6.09012 13.2953 4 15.9999 4C18.7044 4 20.9491 6.09012 21.1418 8.7878L21.3999 12.4" stroke="#2D2D2D" stroke-width="1.5" stroke-linecap="round"/>
</svg>
