<svg width="199" height="30" viewBox="0 0 199 30" fill="none" xmlns="http://www.w3.org/2000/svg">
<path d="M6.20723 29.4823C2.02919 29.4823 0 27.6637 0 23.926V23.5H4.26897V23.926C4.26897 25.0746 4.95812 25.7015 6.20723 25.7015H7.83441C9.08352 25.7015 9.77268 25.0698 9.77268 23.926V23.1937C9.77268 22.0451 9.08352 21.4182 7.83441 21.4182H6.20723C2.02919 21.4182 0 19.5995 0 15.8618V15.1296C0 11.3871 2.02919 9.57324 6.20723 9.57324H7.83441C12.0124 9.57324 14.0416 11.3919 14.0416 15.1296V15.5507H9.77268V15.1296C9.77268 13.981 9.08352 13.354 7.83441 13.354H6.20723C4.95812 13.354 4.26897 13.9858 4.26897 15.1296V15.8618C4.26897 17.0056 4.95812 17.6374 6.20723 17.6374H7.83441C12.0124 17.6374 14.0416 19.456 14.0416 23.1937V23.926C14.0416 27.6637 12.0124 29.4823 7.83441 29.4823H6.20723Z" fill="black"/>
<path d="M25.0724 29.4824V21.4135H19.5639V29.4824H15.2949V9.56372H19.5639V17.6326H25.0724V9.56372H29.3413V29.4824H25.0724Z" fill="black"/>
<path d="M47.1445 29.4824V9.56372H61.1862V13.3445H51.4087V17.6326H61.1862V21.4135H51.4087V25.7015H61.1862V29.4824H47.1445Z" fill="black"/>
<path d="M38.2247 9.6311C33.1374 9.6311 30.6152 11.7512 30.6152 15.9867V23.0506C30.6152 27.3052 33.1422 29.4253 38.2247 29.4253C43.3073 29.4253 45.8342 27.3052 45.8342 23.0506V15.9867C45.8342 11.7512 43.3025 9.6311 38.2247 9.6311ZM41.0005 23.0506C41.0005 24.4815 40.0816 25.1851 38.2295 25.1851C36.3774 25.1851 35.4585 24.4768 35.4585 23.0506V15.9867C35.4585 14.5749 36.387 13.8666 38.2295 13.8666C40.072 13.8666 41.0005 14.5749 41.0005 15.9867V23.0506Z" fill="black"/>
<path d="M85.9157 9.56836V29.4822H81.1251V19.9967L78.1435 26.6298H74.6737L71.7496 19.9967V29.4822H66.959V9.56836H72.1708L76.4589 18.8864L80.7039 9.56836H85.9157Z" fill="black"/>
<path d="M97.7595 9.56348H91.4422L86.709 29.4773H91.4422L92.1218 26.6345H97.0847L97.7643 29.4773H102.497L97.7643 9.56348H97.7595ZM93.1411 22.3704L94.596 16.2206L96.0797 22.3704H93.1411Z" fill="black"/>
<path d="M117.506 15.2586C117.506 11.473 115.4 9.56348 111.189 9.56348H103.287V29.4773H108.02V22.3704H111.184C112.232 22.3704 112.768 22.8489 112.768 23.7965V29.4773H117.501V23.7965C117.501 22.3129 117.19 21.1404 116.553 20.2359C117.19 19.3314 117.501 18.1588 117.501 16.6896V15.2634L117.506 15.2586ZM112.773 16.6848C112.773 17.618 112.237 18.0966 111.189 18.0966H108.025V13.842H111.189C112.237 13.842 112.773 14.2967 112.773 15.2538V16.68V16.6848Z" fill="black"/>
<path d="M128.838 19.5181L134.107 29.4822H128.852L126.196 24.481L124.693 21.6574H123.822V29.4822H119.084V9.56836H123.822V17.398H124.693L126.196 14.5743L128.852 9.56836H134.107L128.838 19.5181Z" fill="black"/>
<path d="M134.883 9.56836H149.106V13.8421H139.616V17.398H148.881V21.6574H139.616V25.2133H149.106V29.4822H134.883V9.56836Z" fill="black"/>
<path d="M164.905 15.2586C164.905 11.473 162.799 9.56348 158.573 9.56348H150.672V29.4773H155.405V22.3704H158.569C159.626 22.3704 160.167 22.8489 160.167 23.7965V29.4773H164.9V23.7965C164.9 22.3129 164.575 21.1404 163.938 20.2359C164.575 19.3314 164.9 18.1588 164.9 16.6896V15.2634L164.905 15.2586ZM160.172 16.6848C160.172 17.618 159.636 18.0966 158.573 18.0966H155.41V13.842H158.573C159.631 13.842 160.172 14.2967 160.172 15.2538V16.68V16.6848Z" fill="black"/>
<path d="M180.363 14.5596H180.831C180.831 14.7263 180.76 14.8085 180.617 14.8085H180.363V14.5596Z" fill="black"/>
<path d="M181.463 22.6104C181.463 22.6902 181.503 22.8076 181.585 22.9508H181.336V22.6104H181.463Z" fill="black"/>
<path d="M183.406 25.02H183.279V25.2689H183.406V25.02Z" fill="black"/>
<path d="M183.526 23.4531H183.404V23.702H183.526V23.4531Z" fill="black"/>
<path d="M187.751 12.6182L188.004 12.7449C188.004 12.9117 187.917 12.9938 187.751 12.9938H187.41C187.532 12.7449 187.647 12.6182 187.751 12.6182Z" fill="black"/>
<path d="M190.13 13.0332H190.597V13.1248C190.47 13.1248 189.454 13.1717 188.846 13.3384H188.719V13.2116C188.949 13.2116 189.858 13.1764 190.13 13.0332Z" fill="black"/>
<path d="M191.57 12.9062H191.096V13.033H191.57V12.9062Z" fill="black"/>
<path d="M191.57 13.5007H191.317V13.6275H191.57V13.5007Z" fill="black"/>
<path d="M191.818 12.9065H191.691V13.1272H191.818V12.9065Z" fill="black"/>
<path d="M198.078 11.3851C197.512 11.3851 197.223 11.9979 197.223 13.2236H196.801L195.524 5.14432H195.946L196.374 5.50826H197.223L195.524 3.3059V2.93492L195.946 2.57099C193.044 0.854651 189.924 0 186.583 0C181.189 0.589332 178.492 1.44398 178.492 2.57099H178.919L181.901 1.09648C175.273 6.57656 171.441 11.101 170.405 14.691H169.978V14.3271C171.295 11.357 173 8.66388 175.087 6.24081V5.87687C170.544 10.9461 168.273 14.5009 168.273 16.5295V17.2644L168.701 19.8353L168.273 20.2063L169.978 22.4087C171.746 27.0623 176.005 29.3914 182.751 29.3914H183.178L185.305 29.0205C189.259 26.9919 192.241 24.7848 194.246 22.4087H193.819C196.658 17.4264 198.078 14.2426 198.078 12.8549V11.3875V11.3851ZM194.843 11.8946H195.063V12.1153H194.843V11.8946ZM193.328 11.5237H193.577V11.7725H193.328V11.5237ZM193.652 14.5924H193.305V14.4703H193.652V14.5924ZM194.044 13.5006L192.664 13.3738C191.952 13.7096 191.466 13.8763 191.196 13.8763L191.318 14.097L192.828 13.8716L193.112 14.0219V14.2426L190.569 14.6417L190.633 15.2311C189.09 15.4846 187.656 15.5786 187.656 15.8086C187.656 15.9754 187.754 15.9073 188.008 15.9073L188.071 16.4614C187.111 16.5882 186.569 16.8652 186.569 17.9711L186.66 18.1918C186.515 18.8398 186.355 23.0802 186.193 23.0802V23.207L186.066 24.2988L186.193 24.5477C186.146 24.9233 185.909 25.2473 185.47 25.5197C185.47 26.0856 185.39 26.3697 185.221 26.3697L185.094 26.1161C184.822 26.2828 184.585 26.3697 184.371 26.3697C184.268 25.9705 184.145 25.7733 183.995 25.7733V26.2405C183.683 25.9916 183.528 25.7075 183.528 25.3976H183.279V25.5197L183.406 25.7733L183.152 25.8648C183.152 25.4493 182.986 25.0501 182.655 24.6744H182.556V24.8951C182.434 24.8951 182.307 24.7801 182.18 24.5477L181.931 24.6744H181.805C181.638 23.8832 181.401 23.3103 181.088 22.9511C181.088 22.559 180.962 18.4383 180.713 18.4383H180.621C180.621 18.6919 180.534 18.814 180.368 18.814L180.246 18.5651C179.703 18.8774 178.644 19.1192 177.085 19.2883L176.958 19.0347C177.038 19.0347 177.085 19.0065 177.085 18.9431H176.113C176.113 18.544 175.634 18.2951 174.674 18.1918C174.068 17.856 173.617 17.3771 173.326 16.7525H173.199V16.3768C173.303 16.3768 173.472 16.1796 173.702 15.7805H173.923L174.171 15.9073C174.171 15.757 174.819 15.548 176.113 15.278C176.465 14.9892 177.968 14.5501 180.621 13.9655C181.182 13.9655 181.464 9.25556 181.464 7.31382C181.61 6.02011 181.891 5.08327 182.307 4.49864C183.723 4.76395 184.822 5.17484 185.597 5.71722C186.47 5.88392 186.909 6.29011 186.909 6.93579C187.221 6.93579 187.43 11.155 187.534 12.1153C187.454 12.1153 187.411 12.1623 187.411 12.2421H187.534C188.602 12.012 192.563 11.4556 192.793 11.4556V11.5824C192.793 11.7279 192.706 11.796 192.539 11.796C192.46 11.796 192.417 11.7561 192.417 11.6739C192.314 11.7538 192.03 11.796 191.567 11.796L189.071 12.2233H189.325C189.325 12.3901 189.198 12.4769 188.949 12.4769L188.921 12.6389C192.626 11.8242 194.112 11.9862 194.326 11.9909L194.35 12.3666C193.702 12.5333 193.946 12.6554 193.784 12.6554L192.91 12.7775C192.575 12.7775 192.523 13.031 192.668 13.031L194.176 12.9043H194.298C194.298 12.9841 194.338 13.1015 194.425 13.2517C194.176 13.3316 194.049 13.4138 194.049 13.5006H194.044ZM194.951 13.125C194.784 13.125 194.702 13.0498 194.702 12.9043C194.824 12.9043 194.979 12.8244 195.169 12.6554H195.296C195.376 12.6554 195.418 12.6953 195.418 12.7775L195.667 12.6554H195.794V12.9043C195.481 12.9043 195.239 12.9794 195.077 13.125H194.951ZM195.923 13.7495H195.669V13.5006H195.923V13.7495Z" fill="black"/>
<path d="M197.651 7.34668H196.801V9.18277H197.651V7.34668Z" fill="black"/>
<path d="M181.93 24.8931V25.1419H182.179V24.8931H181.93Z" fill="black"/>
<path d="M180.363 14.806H180.617C180.762 14.806 180.831 14.7262 180.831 14.5571H180.363V14.806Z" fill="black"/>
<path d="M181.336 22.6104V22.9508H181.585C181.505 22.8052 181.463 22.6902 181.463 22.6104H181.336Z" fill="black"/>
<path d="M183.406 25.02H183.279V25.2689H183.406V25.02Z" fill="black"/>
<path d="M183.526 23.4531H183.404V23.702H183.526V23.4531Z" fill="black"/>
<path d="M187.41 12.9938H187.751C187.917 12.9938 188.004 12.914 188.004 12.7449L187.751 12.6182C187.647 12.6182 187.53 12.7449 187.41 12.9938Z" fill="black"/>
<path d="M188.723 13.2119V13.3387H188.849C189.455 13.172 190.474 13.125 190.601 13.125V13.0334H190.134C189.861 13.179 188.955 13.2119 188.723 13.2119Z" fill="black"/>
<path d="M191.57 12.9062H191.096V13.033H191.57V12.9062Z" fill="black"/>
<path d="M191.57 13.5007H191.317V13.6275H191.57V13.5007Z" fill="black"/>
<path d="M191.818 12.9065H191.691V13.1272H191.818V12.9065Z" fill="black"/>
<path d="M197.651 7.34668H196.801V9.18277H197.651V7.34668Z" fill="black"/>
<path d="M182.179 24.8931H181.93V25.1419H182.179V24.8931Z" fill="black"/>
</svg>
