<svg width="200" height="30" viewBox="0 0 200 30" fill="none" xmlns="http://www.w3.org/2000/svg">
<path d="M6.2265 26.9592C2.0355 26.9592 0 25.1349 0 21.3856V20.9583H4.28223V21.3856C4.28223 22.5378 4.97352 23.1666 6.2265 23.1666H7.85874C9.11173 23.1666 9.80303 22.533 9.80303 21.3856V20.6511C9.80303 19.4989 9.11173 18.87 7.85874 18.87H6.2265C2.0355 18.87 0 17.0457 0 13.2964V12.5619C0 8.80777 2.0355 6.98831 6.2265 6.98831H7.85874C12.0498 6.98831 14.0852 8.81257 14.0852 12.5619V12.9844H9.80303V12.5619C9.80303 11.4097 9.11173 10.7808 7.85874 10.7808H6.2265C4.97352 10.7808 4.28223 11.4145 4.28223 12.5619V13.2964C4.28223 14.4438 4.97352 15.0775 6.2265 15.0775H7.85874C12.0498 15.0775 14.0852 16.9017 14.0852 20.6511V21.3856C14.0852 25.1349 12.0498 26.9592 7.85874 26.9592H6.2265Z" fill="black"/>
<path d="M25.1502 26.959V18.865H19.6246V26.959H15.3424V6.97852H19.6246V15.0725H25.1502V6.97852H29.4325V26.959H25.1502Z" fill="black"/>
<path d="M47.2909 26.959V6.97852H61.3762V10.7711H51.5684V15.0725H61.3762V18.865H51.5684V23.1664H61.3762V26.959H47.2909Z" fill="black"/>
<path d="M38.3434 7.04611C33.2403 7.04611 30.7103 9.1728 30.7103 13.4214V20.5072C30.7103 24.7751 33.2451 26.9018 38.3434 26.9018C43.4417 26.9018 45.9765 24.7751 45.9765 20.5072V13.4214C45.9765 9.1728 43.4369 7.04611 38.3434 7.04611ZM41.1278 20.5072C41.1278 21.9427 40.2061 22.6484 38.3482 22.6484C36.4903 22.6484 35.5686 21.9379 35.5686 20.5072V13.4214C35.5686 12.0052 36.4999 11.2947 38.3482 11.2947C40.1965 11.2947 41.1278 12.0052 41.1278 13.4214V20.5072Z" fill="black"/>
<path d="M86.1828 6.98341V26.9591H81.3773V17.4441L78.3864 24.0979H74.9059L71.9727 17.4441V26.9591H67.1672V6.98341H72.3952L76.6966 16.3304L80.9548 6.98341H86.1828Z" fill="black"/>
<path d="M91.7264 6.97852L86.9786 26.9542H91.7264L92.4081 24.1026H97.3865L98.0682 26.9542H102.816L98.0682 6.97852H91.7264ZM93.4307 19.8252L94.8901 13.6563L96.3783 19.8252H93.4307Z" fill="black"/>
<path d="M117.871 12.6914C117.871 8.894 115.759 6.97852 111.534 6.97852H103.608V26.9542H108.356V19.8252H111.529C112.581 19.8252 113.118 20.3052 113.118 21.2558V26.9542H117.866V21.2558C117.866 19.7676 117.554 18.5914 116.916 17.6841C117.554 16.7767 117.866 15.6006 117.866 14.1268V12.6961L117.871 12.6914ZM113.123 14.122C113.123 15.0581 112.585 15.5382 111.534 15.5382H108.361V11.2703H111.534C112.585 11.2703 113.123 11.7264 113.123 12.6865V14.122Z" fill="black"/>
<path d="M129.238 16.964L134.523 26.9591H129.252L125.08 19.11H124.207V26.9591H119.454V6.98341H124.207V14.8373H125.08L126.588 12.0049L129.252 6.98341H134.523L129.238 16.964Z" fill="black"/>
<path d="M135.302 6.98341H149.57V11.2704H140.05V14.8373H149.344V19.11H140.05V22.6769H149.57V26.9591H135.302V6.98341Z" fill="black"/>
<path d="M165.417 12.6914C165.417 8.894 163.305 6.97852 159.066 6.97852H151.14V26.9542H155.888V19.8252H159.061C160.122 19.8252 160.665 20.3052 160.665 21.2558V26.9542H165.413V21.2558C165.413 19.7676 165.086 18.5914 164.448 17.6841C165.086 16.7767 165.413 15.6006 165.413 14.1268V12.6961L165.417 12.6914ZM160.669 14.122C160.669 15.0581 160.132 15.5382 159.066 15.5382H155.893V11.2703H159.066C160.127 11.2703 160.669 11.7264 160.669 12.6865V14.122Z" fill="black"/>
<path d="M182.23 14.6048H182.699C182.699 14.772 182.628 14.8544 182.484 14.8544H182.23V14.6048Z" fill="black"/>
<path d="M183.333 22.6806C183.333 22.7606 183.373 22.8784 183.455 23.0221H183.205V22.6806H183.333Z" fill="black"/>
<path d="M185.282 25.0977H185.155V25.3474H185.282V25.0977Z" fill="black"/>
<path d="M185.403 23.526H185.28V23.7756H185.403V23.526Z" fill="black"/>
<path d="M189.64 12.6573L189.894 12.7845C189.894 12.9517 189.807 13.0342 189.64 13.0342H189.299C189.421 12.7845 189.536 12.6573 189.64 12.6573Z" fill="black"/>
<path d="M192.027 13.0737H192.495V13.1655C192.368 13.1655 191.348 13.2126 190.738 13.3799H190.611V13.2527C190.842 13.2527 191.754 13.2173 192.027 13.0737Z" fill="black"/>
<path d="M193.471 12.9463H192.996V13.0735H193.471V12.9463Z" fill="black"/>
<path d="M193.471 13.5424H193.217V13.6696H193.471V13.5424Z" fill="black"/>
<path d="M193.72 12.9463H193.593V13.1677H193.72V12.9463Z" fill="black"/>
<path d="M200 11.4205C199.432 11.4205 199.142 12.0352 199.142 13.2646H198.718L197.437 5.16029H197.861L198.29 5.52537H199.142L197.437 3.31616V2.94403L197.861 2.57898C194.95 0.857305 191.82 0 188.468 0C183.059 0.591162 180.352 1.44847 180.352 2.57898H180.781L183.772 1.09989C177.123 6.59698 173.28 11.1355 172.241 14.7367H171.812V14.3716C173.134 11.3922 174.843 8.69079 176.937 6.2602V5.89512C172.38 10.9801 170.102 14.5459 170.102 16.5808V17.318L170.531 19.8969L170.102 20.2691L171.812 22.4783C173.586 27.1463 177.858 29.4827 184.625 29.4827H185.053L187.187 29.1106C191.153 27.0757 194.145 24.8618 196.156 22.4783H195.727C198.575 17.4805 200 14.2868 200 12.8949V11.4205ZM196.754 11.9316H196.976V12.153H196.754V11.9316ZM195.235 11.5595H195.485V11.8091H195.235V11.5595ZM195.56 14.6377H195.211V14.5153H195.56V14.6377ZM195.953 13.5425L194.569 13.4154C193.855 13.7522 193.367 13.9194 193.096 13.9194L193.219 14.1408L194.733 13.9147L195.018 14.0654V14.2868L192.468 14.6872L192.531 15.2783C190.984 15.5327 189.545 15.6269 189.545 15.8577C189.545 16.025 189.644 15.9567 189.898 15.9567L189.962 16.5125C188.998 16.6397 188.454 16.9176 188.454 18.0269L188.546 18.2483C188.4 18.8983 188.24 23.1519 188.078 23.1519V23.279L187.95 24.3742L188.078 24.6239C188.03 25.0007 187.793 25.3257 187.352 25.599C187.352 26.1666 187.272 26.4515 187.102 26.4515L186.975 26.1972C186.702 26.3644 186.464 26.4515 186.25 26.4515C186.146 26.0512 186.024 25.8533 185.873 25.8533V26.322C185.56 26.0724 185.404 25.7874 185.404 25.4765H185.155V25.599L185.282 25.8533L185.027 25.9452C185.027 25.5283 184.86 25.1279 184.528 24.7511H184.429V24.9725C184.307 24.9725 184.18 24.8571 184.052 24.6239L183.803 24.7511H183.676C183.508 23.9574 183.27 23.3827 182.957 23.0223C182.957 22.629 182.83 18.4956 182.58 18.4956H182.489C182.489 18.7499 182.401 18.8724 182.234 18.8724L182.112 18.6228C181.568 18.936 180.505 19.1786 178.942 19.3482L178.814 19.0938C178.894 19.0938 178.942 19.0656 178.942 19.002H177.967C177.967 18.6016 177.486 18.3519 176.523 18.2483C175.915 17.9115 175.463 17.431 175.171 16.8045H175.044V16.4277C175.147 16.4277 175.317 16.2299 175.548 15.8295H175.769L176.019 15.9567C176.019 15.8059 176.669 15.5963 177.967 15.3255C178.32 15.0358 179.827 14.5953 182.489 14.0089C183.051 14.0089 183.334 9.28431 183.334 7.33653C183.48 6.03881 183.763 5.09906 184.18 4.51261C185.6 4.77875 186.702 5.19091 187.479 5.73497C188.355 5.90219 188.796 6.30965 188.796 6.95733C189.109 6.95733 189.319 11.1897 189.422 12.153C189.342 12.153 189.3 12.2001 189.3 12.2802H189.422C190.494 12.0493 194.467 11.4911 194.698 11.4911V11.6183C194.698 11.7644 194.611 11.8327 194.444 11.8327C194.364 11.8327 194.321 11.7926 194.321 11.7102C194.218 11.7903 193.933 11.8327 193.469 11.8327L190.965 12.2613H191.219C191.219 12.4285 191.092 12.5157 190.843 12.5157L190.814 12.6782C194.531 11.8609 196.022 12.0234 196.236 12.0281L196.26 12.405C195.61 12.5722 195.854 12.6947 195.692 12.6947L194.816 12.8171C194.479 12.8171 194.427 13.0715 194.573 13.0715L196.085 12.9443H196.208C196.208 13.0244 196.248 13.1422 196.335 13.2929C196.085 13.373 195.958 13.4554 195.958 13.5425H195.953ZM196.862 13.1657C196.695 13.1657 196.613 13.0904 196.613 12.9443C196.735 12.9443 196.891 12.8643 197.082 12.6947H197.209C197.289 12.6947 197.331 12.7347 197.331 12.8171L197.581 12.6947H197.708V12.9443C197.395 12.9443 197.152 13.0197 196.99 13.1657H196.862ZM197.838 13.7922H197.583V13.5425H197.838V13.7922Z" fill="black"/>
<path d="M199.571 7.36949H198.718V9.21128H199.571V7.36949Z" fill="black"/>
<path d="M183.801 24.9704V25.2201H184.051V24.9704H183.801Z" fill="black"/>
<path d="M182.23 14.8521H182.485C182.631 14.8521 182.699 14.772 182.699 14.6025H182.23V14.8521Z" fill="black"/>
<path d="M183.205 22.6806V23.0221H183.455C183.375 22.8761 183.333 22.7606 183.333 22.6806H183.205Z" fill="black"/>
<path d="M185.282 25.0977H185.155V25.3474H185.282V25.0977Z" fill="black"/>
<path d="M185.403 23.526H185.28V23.7756H185.403V23.526Z" fill="black"/>
<path d="M189.299 13.0342H189.64C189.807 13.0342 189.894 12.9541 189.894 12.7845L189.64 12.6573C189.536 12.6573 189.419 12.7845 189.299 13.0342Z" fill="black"/>
<path d="M190.616 13.2528V13.38H190.743C191.351 13.2128 192.373 13.1657 192.5 13.1657V13.0738H192.031C191.758 13.2198 190.849 13.2528 190.616 13.2528Z" fill="black"/>
<path d="M193.471 12.9463H192.996V13.0735H193.471V12.9463Z" fill="black"/>
<path d="M193.471 13.5424H193.217V13.6696H193.471V13.5424Z" fill="black"/>
<path d="M193.72 12.9463H193.593V13.1677H193.72V12.9463Z" fill="black"/>
<path d="M199.571 7.36949H198.718V9.21128H199.571V7.36949Z" fill="black"/>
<path d="M184.051 24.9704H183.801V25.2201H184.051V24.9704Z" fill="black"/>
</svg>
